<?xml version="1.0" encoding="UTF-8"?>
<svg width="32" height="32" viewBox="0 0 500 500" fill="none" xmlns="http://www.w3.org/2000/svg">
  <!-- Strawberry body -->
  <path d="M250 450 C 380 450 420 300 420 200 C 420 150 380 100 250 100 C 120 100 80 150 80 200 C 80 300 120 450 250 450" fill="#FF4444"/>
  
  <!-- Seeds -->
  <circle cx="150" cy="200" r="15" fill="#222222"/>
  <circle cx="350" cy="200" r="15" fill="#222222"/>
  <circle cx="250" cy="250" r="15" fill="#222222"/>
  <circle cx="200" cy="300" r="15" fill="#222222"/>
  <circle cx="300" cy="300" r="15" fill="#222222"/>
  <circle cx="150" cy="350" r="15" fill="#222222"/>
  <circle cx="350" cy="350" r="15" fill="#222222"/>
  <circle cx="250" cy="380" r="15" fill="#222222"/>
  
  <!-- Leaves -->
  <path d="M250 100 C 200 50 150 80 200 120 C 250 80 300 50 250 100" fill="#4CAF50"/>
  <path d="M300 90 C 350 60 380 90 340 120 C 320 90 280 70 300 90" fill="#2E7D32"/>
</svg> 